<?xml version="1.0" encoding="utf-8"?>
<!-- Generator: Adobe Illustrator 22.0.1, SVG Export Plug-In . SVG Version: 6.00 Build 0)  -->
<svg version="1.1" xmlns="http://www.w3.org/2000/svg" xmlns:xlink="http://www.w3.org/1999/xlink" x="0px" y="0px"
	 viewBox="0 0 968 768" style="enable-background:new 0 0 968 768;" xml:space="preserve">
<style type="text/css">
	.st0{fill:#8C6239;}
	.st1{fill:url(#SVGID_1_);}
	.st2{fill:none;stroke:#A67C52;stroke-miterlimit:10;}
	.st3{fill:none;}
	.st4{fill:#736357;}
	.st5{font-family:'Algerian';}
	.st6{font-size:1141.3801px;}
	.st7{fill:#C69C6D;}
	.st8{fill:#FFFFFF;}
</style>
<g id="Layer_5">
</g>
<g id="Layer_3">
</g>
<g id="Layer_1">
</g>
<g id="Layer_4">
	<g>
		<path class="st0" d="M673,198.7c-16.8-6.3-29.3-8.9-49-13c-39.7-8.3-71-9.3-88.3-9.8c-13.5-0.4-23.8-0.1-27.8,0
			c-4.1,0.1-20.8,0.7-42.5,3.3c-36.4,4.3-69.3,8.2-111.1,21.2c-45.3,14.1-77.7,31.5-94.8,40.8c-28.8,15.7-47.8,29.3-52.3,32.6
			c-17.1,12.4-36.7,26.8-57.2,50.5c-8.4,9.7-21.1,24.6-32.7,47.3c-6.1,12-15.8,31.4-19.6,58.7c-1.3,9.1-3.2,24.4,0,44
			c0.8,4.6,4.1,23.6,16.3,45.7c10.9,19.7,23.3,31.8,32.7,40.8c5,4.8,28.4,26.7,67,44c20.3,9.1,36.4,13.1,55.6,17.9
			c12.7,3.2,35.6,8.8,65.4,11.4c21.6,1.9,42.2,0.7,83.3-1.6c36.4-2.1,54.7-3.1,73.5-6.5c27.4-5,48.4-11.8,67-17.9
			c12.7-4.1,31.5-10.4,55.6-21.2c24.3-10.9,41.7-21.1,47.4-24.5c19.4-11.5,33.5-21.8,39.2-26.1c11.6-8.7,19.9-15.8,26.1-21.2
			c10.6-9.1,19.1-16.6,29.4-27.7c4.5-4.9,10-10.9,16.3-19.6c9.4-12.9,15.1-23.9,19.6-32.6c5.1-9.9,7.6-14.8,9.8-21.2
			c8-23.1,3.3-36,8.2-37.5c6.5-2,22.7,17.9,19.6,32.6c-0.4,1.8-1.3,4.4-3.3,9.8c0,0-3.2,8.8-6.5,16.3c-9.8,22-29.4,47.3-29.4,47.3
			c-14.4,18.6-27.4,31-36,39.1c-5.4,5.1-23.8,22.3-50.7,40.8c-12.6,8.7-22.9,14.8-31.1,19.6c-6.4,3.8-21.8,12.7-42.5,22.8
			c-7.9,3.9-19.9,9.7-36,16.3c-15.4,6.3-26.6,10-45.8,16.3c-20.9,6.9-33,10.2-37.6,11.4c-1.8,0.5-9.4,2.5-19.6,4.9
			c-3.9,0.9-15.1,3.5-31.1,6.5c-14.8,2.8-25.2,4.8-39.2,6.5c-13.1,1.6-22.5,2.2-39.2,3.3c-17.4,1.1-30.7,1.5-36,1.6
			c-21.5,0.6-32.3,0.9-45.8,0c-8.9-0.6-4.8-0.7-40.9-4.9c-22.1-2.6-26.5-2.9-36-4.9c-5.7-1.2-6.5-1.6-29.4-8.2
			c-28.8-8.2-28.6-7.8-34.3-9.8c-16.1-5.5-27.4-11.6-39.2-17.9c-8-4.3-23.2-12.4-37.6-22.8c-13.4-9.7-40.5-29.4-58.8-65.2
			c-6.3-12.4-19-41-18-78.3C7.5,413,29.3,380.2,48.7,352c8.4-12.2,34.4-48.2,89.9-88c79.3-56.9,156.5-76.9,214.1-91.3
			c36.3-9,79.8-19.6,138.9-21.2c0,0,74.9-2,160.2,17.9c54.5,12.7,51.3,21.4,76.8,22.8c4.7,0.3,16.5,0.6,21.2,8.2
			c4.1,6.5,2.5,17.3-3.3,21.2c-5.4,3.6-12.8,0-24.5-4.9C706,209.9,689.3,204.9,673,198.7z"/>
		<g id="XMLID_1_">
			<g>
				<radialGradient id="SVGID_1_" cx="804.5682" cy="273.0924" r="148.0059" gradientUnits="userSpaceOnUse">
					<stop  offset="0" style="stop-color:#ee7a44"/>
					<stop  offset="0.1535" style="stop-color:#eb692d"/>
					<stop  offset="0.3554" style="stop-color:#e95916"/>
					<stop  offset="0.562" style="stop-color:#d25014"/>
					<stop  offset="0.7741" style="stop-color:#bb4711"/>
					<stop  offset="1" style="stop-color:#a33e0f"/>
				</radialGradient>
				<path class="st1" d="M804.6,132.7c85.8,0,155.3,62.9,155.3,140.4c0,77.5-69.5,140.4-155.3,140.4s-155.3-62.9-155.3-140.4
					C649.3,195.6,718.8,132.7,804.6,132.7z"/>
			</g>
			<g>
				<path class="st2" d="M959.8,273.1c0,77.5-69.5,140.4-155.3,140.4s-155.3-62.9-155.3-140.4c0-77.5,69.5-140.4,155.3-140.4
					S959.8,195.6,959.8,273.1z"/>
			</g>
		</g>
		<path d="M390.3,394.4"/>
		<rect x="102.6" y="4.7" class="st3" width="1075.4" height="1371.3"/>
		<text transform="matrix(1.0023 0 0 1 102.647 766.0049)" class="st4 st5 st6">T</text>
		<rect x="-53.2" y="-25" class="st3" width="6.1" height="2"/>
		<path class="st7" d="M1107.7,458"/>
		<path class="st0" d="M1042.4,568.9"/>
		<path class="st8" d="M560.2,247.7"/>
		<path class="st0" d="M333.1,671.6c0.1,1.3,37.2,0.1,70.4-3.3c29.3-3,63.8-8.6,63.7-9.8C466.8,656.2,332.9,669.2,333.1,671.6z"/>
		<polygon class="st0" points="333.1,671.6 352.9,635.7 465.4,630.8 468.7,658.6 		"/>
		<polygon class="st0" points="492,626 509.6,622.7 509.6,648.8 486.7,653.7 		"/>
	</g>
</g>
</svg>
